<svg id="Layer_1" data-name="Layer 1" xmlns="http://www.w3.org/2000/svg" viewBox="0 0 167 356"><defs><style>.cls-1{fill:#3e9ee2;}.cls-2{fill:#a25b5c;}.cls-10,.cls-12,.cls-3,.cls-5,.cls-7{fill:none;stroke-linecap:round;}.cls-10,.cls-3{stroke:#282828;}.cls-3,.cls-7{stroke-width:0.75px;}.cls-4{fill:#fff;}.cls-12,.cls-5{stroke:#ccc8c4;stroke-width:0.82px;}.cls-10,.cls-5,.cls-7{stroke-linejoin:round;}.cls-6{fill:#282828;}.cls-7{stroke:#31c29d;}.cls-8{fill:#07375f;}.cls-9{fill:#e5e1dc;}.cls-10{stroke-width:0.87px;}.cls-11{fill:#ffd46d;}</style></defs><title>doctor-clipboard</title><g id="Q_A-FLOW-_" data-name="Q&amp;A-FLOW-✅"><g id="desktop-photo-03"><g id="Left-side"><g id="illustration"><polygon id="Fill-1" class="cls-1" points="104.14 137.64 57.97 137.64 57.97 60.85 77.69 60.85 104.14 102.02 104.14 137.64"/><g id="Group-99"><path id="Fill-2" class="cls-2" d="M122.77,210.07l11.65,7a2.41,2.41,0,0,1-2.35,4.21L125,217.34a32.8,32.8,0,0,1-8.47-6.47l-.78-.89Z"/><path id="Fill-4" class="cls-2" d="M127.86,210.43,138.79,217a2.41,2.41,0,0,1-2.35,4.21L134.24,220l-4.16-2.31a32.81,32.81,0,0,1-8.47-6.47l-.91-1Z"/><path id="Fill-6" class="cls-2" d="M136.58,187.44l-4.24,8a6.84,6.84,0,0,0-.2,6c1.59,3.54,3.72,8.63,3.72,8.63l-9.82.36-10.3-.44-5.22-9.62a12.67,12.67,0,0,1,0-12.28l6.05-10.88Z"/><path id="Fill-8" class="cls-2" d="M131.49,210.07l10.93,6.59a2.41,2.41,0,0,1-2.35,4.21l-1.53-.85-4.82-2.68a32.8,32.8,0,0,1-8.47-6.47l-.91-1Z"/><path id="Fill-10" class="cls-2" d="M135.86,210.07l6.57,4a2.41,2.41,0,0,1-2.35,4.21l-2-1a32.8,32.8,0,0,1-8.47-6.47l-.91-1Z"/><path id="Stroke-12" class="cls-3" d="M142.34,218.3a2.39,2.39,0,0,1-2.28,0l-2-1a32.8,32.8,0,0,1-8.47-6.47"/><path id="Stroke-14" class="cls-3" d="M138.53,220l-4.82-2.68a32.81,32.81,0,0,1-8.47-6.47"/><path id="Stroke-16" class="cls-3" d="M134.24,220l-4.16-2.31a32.81,32.81,0,0,1-8.47-6.47"/><path id="Fill-18" class="cls-1" d="M138.22,191.27l22.17-38.68-23.63-13.65-22.17,38.68A45.34,45.34,0,0,0,137.15,191Z"/><path id="Fill-20" class="cls-4" d="M160.48,127.76l-45.2-51.42A42.35,42.35,0,0,0,88,62.17l-8.53-.91c-.4,0-1-.08-1.75-.12l9.18,21.19a45.82,45.82,0,0,1,3.71,15.76l.07,2.62,38.6,43.91-16,27.9a58.39,58.39,0,0,0,29.29,17.14l.64.15,20-34.92a23.45,23.45,0,0,0-2.72-27.13"/><path id="Stroke-22" class="cls-5" d="M90.58,98.09a45.82,45.82,0,0,0-3.71-15.76L77.69,61.14c.76,0,1.35.08,1.76.12l8.53.91a42.35,42.35,0,0,1,27.31,14.17l45.2,51.42a23.45,23.45,0,0,1,2.72,27.13l-20,34.92-.64-.15a58.4,58.4,0,0,1-29.29-17.14l16-27.9L113.1,126.75"/><path id="Fill-24" class="cls-6" d="M37.08,32.13a16.25,16.25,0,0,1,6-5A9.44,9.44,0,0,0,48.44,19a19.58,19.58,0,1,1,36.78,10.2,16.33,16.33,0,0,1,.49,22.06,16.16,16.16,0,0,1-12.9,5.5l-19.57,1a16.15,16.15,0,0,1-14.31-4.23,16.38,16.38,0,0,1-1.85-21.41"/><path id="Fill-26" class="cls-2" d="M77.5,61.19,80,37.78,63.9,34.53,58.18,60.9l3.18,1.17a20.42,20.42,0,0,0,16.15-.89"/><polygon id="Fill-28" class="cls-6" points="78.64 50.39 79.27 44.41 70.53 41.68 78.64 50.39"/><path id="Fill-30" class="cls-2" d="M87.72,21.18l.06.62A6.42,6.42,0,0,0,89,25l1.94,2.66a1.25,1.25,0,0,1-.07,1.56L88.4,32l-4.59-5.44Z"/><path id="Fill-32" class="cls-2" d="M66.45,35.33l-.52-9.58,0-.82a16.24,16.24,0,0,0,18-12.76A11.07,11.07,0,0,1,87.74,20l.77,14.11a11,11,0,1,1-22.06,1.21"/><path id="Fill-34" class="cls-6" d="M64.87,25.93l-.23-4.19A12.54,12.54,0,0,1,76.46,8.51a12.45,12.45,0,0,1,8.78,3A18.39,18.39,0,0,1,64.87,25.93"/><path id="Fill-36" class="cls-6" d="M58.2,32.11a8.21,8.21,0,1,1,11.57-.73,8.25,8.25,0,0,1-11.57.73"/><path id="Fill-38" class="cls-6" d="M68.88,30.37l.22,3.53a1.22,1.22,0,0,1-.3.88l-2.5-2.21Z"/><path id="Stroke-40" class="cls-3" d="M81.68,32.78c.75,1,2.46,1.36,4.13.73"/><path id="Stroke-42" class="cls-7" d="M90.11,18.47,92,29"/><path id="Stroke-44" class="cls-7" d="M91.94,23.92,62.59,30.07"/><path id="Fill-46" class="cls-2" d="M64.62,41.82l5.31-6-6.27-5.55a4,4,0,0,0-5.31,6Z"/><path id="Stroke-48" class="cls-3" d="M62.75,34.8l3.51,3.11"/><path id="Fill-50" class="cls-2" d="M133.93,446,96.17,421.32l-.63-11.84-7.9-148,32.79-4.64,9.68,175.49a17.3,17.3,0,0,0,6.76,13,2.19,2.19,0,0,1-2.94.69"/><path id="Fill-54" class="cls-2" d="M-7,457.66,32.87,426l1.66-12.14,20.8-151.69-32.39,1.09L-2,443.13a23.93,23.93,0,0,1-7.89,14.36,2,2,0,0,0,2.88.18"/><path id="Fill-59" class="cls-8" d="M27.75,136.37l81.19,1.27,46.23,273.08a4.59,4.59,0,0,1-6.56,4.78L88.47,385.75a7.76,7.76,0,0,1-4.29-6.39L76.86,215.08a6,6,0,0,0-11.91,0L48.17,379.36a7.76,7.76,0,0,1-4.29,6.39L-16.26,415.5a4.59,4.59,0,0,1-6.56-4.78Z"/><path id="Fill-61" class="cls-4" d="M84.9,357.44,70.9,96.82a45.81,45.81,0,0,0-3.62-14.49L58,60.86c-12.75-.06-24.94.07-27.64.35A42.48,42.48,0,0,0-7.14,96.74H24.71l-62,249.52A9.49,9.49,0,0,0-29,358l103.58,9.39a9.48,9.48,0,0,0,10.28-10"/><path id="Stroke-63" class="cls-5" d="M84.9,357.44,70.9,96.82a45.81,45.81,0,0,0-3.62-14.49L58,60.86c-12.75-.06-24.94.07-27.64.35A42.48,42.48,0,0,0-7.14,96.74H24.71l-62,249.52A9.49,9.49,0,0,0-29,358l103.58,9.39A9.48,9.48,0,0,0,84.9,357.44Z"/><polygon id="Fill-65" class="cls-4" points="90.65 100.71 112.25 364.46 155.22 355.62 108.38 101.11 90.65 100.71"/><polyline id="Stroke-67" class="cls-5" points="90.58 98.09 90.65 100.71 112.25 364.46 155.22 355.62 108.38 101.11"/><path id="Fill-69" class="cls-9" d="M103.3,124A5.06,5.06,0,1,0,98.24,129,5.07,5.07,0,0,0,103.3,124"/><path id="Stroke-71" class="cls-10" d="M103.3,124A5.06,5.06,0,1,0,98.24,129,5.07,5.07,0,0,0,103.3,124Z"/><path id="Fill-73" class="cls-2" d="M55.68,154.44l4.77-3.72a9.83,9.83,0,0,1,6-2.08h1.31a1.61,1.61,0,0,1,.47,3.14l-1.92.6-3.23,3.89Z"/><path id="Fill-75" class="cls-11" d="M96.52,170.55H57.82c-.69,0-1-.57-.67-1.26l20.47-44.06A2.27,2.27,0,0,1,79.46,124h38.7c.69,0,1,.57.67,1.26L98.36,169.28a2.27,2.27,0,0,1-1.84,1.26"/><path id="Fill-77" class="cls-2" d="M55.68,154.44a9.89,9.89,0,0,0-2.42,2.74l-1.51,2.55,2.47,16.46L62.81,174l3.28-13.42-1.71-3.06-1.26-1.26Z"/><path id="Fill-79" class="cls-2" d="M85.91,153.27l-3.47,1.19-20.61,2.79a3.25,3.25,0,0,0,.92,6.43l.31-.06,15.72-3.51a10.3,10.3,0,0,0,1.47-.45L84.54,158l2.12-.82a2,2,0,0,0-.75-3.91"/><path id="Fill-81" class="cls-2" d="M60.17,163.71l13.25-2.9,5.29-1.16a4.06,4.06,0,0,0,1.62-.79c.1-.07.3-.27.46-.42l.51-.47,1-.94A1.91,1.91,0,0,1,85,159.7l-.9,1.05-.45.53c-.16.18-.27.32-.5.57a8.37,8.37,0,0,1-3.07,2.06l-5.33,1.87L61.93,170Z"/><path id="Fill-83" class="cls-2" d="M62.13,165.61l10.81-2.37,4.21-.8a4.06,4.06,0,0,0,1.62-.79c.09-.07.3-.27.46-.42l.51-.47,1-.94a1.91,1.91,0,0,1,2.73,2.65l-.9,1.05-.45.53c-.16.18-.27.32-.5.57a8.37,8.37,0,0,1-3.07,2.06l-5.33,1.87-9.36,3.29Z"/><path id="Fill-85" class="cls-2" d="M61.05,167.77l10.81-2.37,4.21-.8a4.06,4.06,0,0,0,1.62-.79c.09-.07.3-.27.46-.42l.51-.47,1-.94a1.91,1.91,0,0,1,2.73,2.65l-.9,1.05-.45.53c-.16.18-.27.32-.5.57a8.37,8.37,0,0,1-3.07,2.06l-4.25,1.51L62.81,174Z"/><path id="Stroke-87" class="cls-3" d="M73.61,161.26l5.16-1.15a10.26,10.26,0,0,0,1.47-.45L84.54,158"/><polygon id="Fill-89" class="cls-2" points="14.94 158.45 54.22 158.25 54.22 176.19 14.94 182.64 14.94 158.45"/><path id="Stroke-91" class="cls-3" d="M83.19,160.51a8.37,8.37,0,0,1-3.07,2.06l-6.52,2.25"/><path id="Stroke-93" class="cls-3" d="M82.59,162.19l-.45.53c-.16.18-.27.32-.5.57a8.38,8.38,0,0,1-3.07,2.06l-5.33,1.87"/><polygon id="Fill-95" class="cls-1" points="40.41 182.52 50.09 182.52 50.09 155.33 40.41 155.33 40.41 182.52"/><path id="Fill-97" class="cls-4" d="M46.5,187.77H-15.77a17.72,17.72,0,0,1-14.55-7.62,17.87,17.87,0,0,1-2.1-16.34L-3.79,85.73,29.51,98,10.94,152.15H46.5Z"/><path id="Stroke-98" class="cls-12" d="M29.51,98,10.94,152.15H46.5v35.62H-15.77a17.72,17.72,0,0,1-14.55-7.62,17.87,17.87,0,0,1-2.1-16.34L-3.79,85.73"/></g></g></g></g></g></svg>