<svg id="Layer_1" data-name="Layer 1" xmlns="http://www.w3.org/2000/svg" xmlns:xlink="http://www.w3.org/1999/xlink" viewBox="0 0 710 243"><defs><style>.cls-1{fill:#fff;}.cls-2{fill:#d8d8d8;}.cls-3{mask:url(#mask);}.cls-4{fill:#07375f;}.cls-5{fill:#3e9ee2;}.cls-6{fill:url(#linear-gradient);}</style><mask id="mask" x="-905.75" y="-772.37" width="1861.25" height="1751.49" maskUnits="userSpaceOnUse"><g id="mask-2"><path id="path-1" class="cls-1" d="M-23-20,57,52.59q94.33,68.7,187.29,68.41C369.5,120.61,411,78.79,526.66,80.83Q650,83,710,108.52V323H-22.87Z"/></g></mask><linearGradient id="linear-gradient" x1="-326.01" y1="505.06" x2="-325.76" y2="505.21" gradientTransform="matrix(635.24, 0, 0, -971.33, 207715.54, 491113.6)" gradientUnits="userSpaceOnUse"><stop offset="0" stop-color="#46afff"/><stop offset="1" stop-color="#54f7c6"/></linearGradient></defs><title>waves</title><g id="Q_A-FLOW-_" data-name="Q&amp;A-FLOW-✅"><g id="desktop-photo-03"><g id="Left-side"><g id="graphic"><g id="Path-3"><path id="path-1-2" data-name="path-1" class="cls-2" d="M-23-20,57,52.59q94.33,68.7,187.29,68.41C369.5,120.61,411,78.79,526.66,80.83Q650,83,710,108.52V323H-22.87Z"/></g><g class="cls-3"><g id="Group-286"><g id="Group-38"><path id="Fill-26" class="cls-4" d="M-21.39-119.26C-294.43,63.95-591.33,210.4-905.75,303A2145.21,2145.21,0,0,1-761.18,979.12L392.33,259.29A4480.91,4480.91,0,0,0-21.39-119.26"/><path id="Fill-28" class="cls-5" d="M392.33,259.29,636.41,107c84.37-213.71,177.8-416.67,280.88-598.68a2139.22,2139.22,0,0,0-99.55-268.83q-42-4.67-83.25-11.83Q571.41-598.2,392.65-439.82C262-324.3,123.67-216.6-21.39-119.26A4481,4481,0,0,1,392.33,259.29"/></g><g id="Group-229"><path id="Fill-223" class="cls-6" d="M826.74,855.95C910.05,626.45,955.5,378.78,955.5,120.5a2179.11,2179.11,0,0,0-12.77-235.88L324.7,302c-38.45,97.38,186.7,1.94,152,102.82A4501,4501,0,0,1,826.74,855.95Z"/></g></g></g></g></g></g></g></svg>